<?xml version="1.0" encoding="UTF-8"?>
<svg id="Layer_1" xmlns="http://www.w3.org/2000/svg" xmlns:xlink="http://www.w3.org/1999/xlink" version="1.1" viewBox="0 0 553.7 511.9">
  <!-- Generator: Adobe Illustrator 30.3.0, SVG Export Plug-In . SVG Version: 2.1.3 Build 182)  -->
  <defs>
    <style>
      .st0 {
        fill: #d89c13;
      }

      .st1 {
        fill: #f5b501;
      }

      .st2 {
        fill: url(#linear-gradient);
      }

      .st3 {
        fill: #983633;
      }

      .st4 {
        fill: #e73e2d;
      }

      .st5 {
        fill: #4682e3;
      }

      .st6 {
        fill: #2e2e2e;
      }

      .st7 {
        fill: #4363ab;
      }

      .st8 {
        fill: #fefefe;
      }

      .st9 {
        fill: #3f9f4f;
      }

      .st10 {
        fill: #78aaf1;
      }

      .st11 {
        fill: #c04339;
      }
    </style>
    <linearGradient id="linear-gradient" x1="478.6" y1="376.4" x2="479.8" y2="354.8" gradientTransform="translate(0 509.5) scale(1 -1)" gradientUnits="userSpaceOnUse">
      <stop offset="0" stop-color="#255ba5"/>
      <stop offset="1" stop-color="#548be4"/>
    </linearGradient>
  </defs>
  <path class="st9" d="M257.4,131.6c4.3,1,8.3,1.2,12.6,2,35.4,6.8,54.9,19.4,80.6,43.2,5.7,6.8,10.1,12.4,15.2,19.8l1.4,1.6c11.6-2.3,31.3.3,41.8-1.4,5,16,17.5,30.9,27,44.4,30.5,36.6,57.7,80.5,52.7,129.9-3.9,38.2-19.9,68-49.9,91.8-9.4,7.4-17.5,13.5-28.5,18.7-54,30.6-136,36.1-196.1,24.8-74.1-13.4-133.5-50.4-176.7-112.5-4.1-5.8-8.3-11.9-11.7-18.1-7-12.8-27.2-56.9-25.7-70,.2-1.7.7-2.7,2-3.8,3.4-.9,10.8,3.4,14,5.2,6.4,3.6,11.5,5.7,18.7,7.2-18-29.2-27.9-60.9-20.4-95.2,3.4-15.6,10.7-9.1,18.3-.9,22,23.8,48.7,36.8,78.3,48.6.5-9.7,1-27.7,7.4-35.3,3.6-4.3,19.8,6.6,24.4,9.1,38,20.7,82.8,18,124.7,18.2,10.2,0,19.6-1,29.9,0h.5c0,0,.3-.6.3-.6,18.9-39.6-8.4-67.3-28-99.5-5.6-9.3-9.1-17-12.7-27.1"/>
  <path class="st4" d="M387.6,291.4c15.9,11.5,30.8,32.2,38.3,50.2,15.1,36.1,14.9,76.7-.6,112.6-4.5,10.1-10.8,17.1-15,27.4-54,30.6-136,36.1-196.1,24.8,6.8-9.1,20.5-20.6,29.1-29,23.1-22.7,46.3-45.2,69.7-67.5,14.1-13.5,30.2-27.5,42.4-42.5,8.4-10.3,17.4-26.1,22.8-38.2,4.9-10.9,6-25.7,9.4-37.7"/>
  <path class="st5" d="M34.8,314.3c-18-29.2-27.9-60.9-20.4-95.2,3.4-15.6,10.7-9.1,18.3-.9,22,23.8,48.7,36.8,78.3,48.6-2.5,34.2,14,77.8,36.9,103,4.3,4.7,8.3,8.8,12.7,13.3-10.4,8.3-56.4,14.1-70.8,15.8-5.6.6-17.1,0-22.9-.4-8.4-.7-21.4-4.2-29.5-4.3-4.1-5.8-8.3-11.9-11.7-18.1-7-12.8-27.2-56.9-25.7-70,.2-1.7.7-2.7,2-3.8,3.4-.9,10.8,3.4,14,5.2,6.4,3.6,11.5,5.7,18.7,7.2"/>
  <path class="st1" d="M111,266.8c.5-9.7,1-27.7,7.4-35.3,3.6-4.3,19.8,6.6,24.4,9.1,38,20.7,82.8,18,124.7,18.2,10.2,0,19.6-1,29.9,0-4.1,7.5-8.1,14.5-12.7,21.7-28.9,45.4-72,81.7-121.6,102.4-.8.3-1.6.3-2.4.1-4.4-4.5-8.4-8.6-12.7-13.3-22.9-25.2-39.4-68.7-36.9-103"/>
  <path class="st1" d="M257.4,131.6c4.3,1,8.3,1.2,12.6,2,35.4,6.8,54.9,19.4,80.6,43.2,5.7,6.8,10.1,12.4,15.2,19.8l1.4,1.6c1.3,2,4.3,6.8,5.7,8.3,12.3,27.4,18.7,53.3,14.7,83.7-31.3-21.8-50.6-30.8-89.8-31.4l.3-.5c18.9-39.6-8.4-67.3-28-99.5-5.6-9.3-9.1-17-12.7-27.1"/>
  <path class="st0" d="M270,133.6c35.4,6.8,54.9,19.4,80.6,43.2,5.7,6.8,10.1,12.4,15.2,19.8-33.7-.1-73.9-22.2-89.4-52.5-1.8-3.5-4.2-7.2-6.4-10.5"/>
  <path class="st4" d="M367.1,198.2c11.6-2.3,31.3.3,41.8-1.4,5,16,17.5,30.9,27,44.4-13.3-.9-38.2-15.6-48.5-24-4.2-3.4-10-9.4-14.7-10.7-1.4-1.5-4.4-6.3-5.7-8.3"/>
  <path class="st4" d="M257.4,131.6c-17.5-43.2,4.4-98.5,45.4-119.3,27.5-13.9,51-15.5,80.3-7.2,28.3,10.6,45.2,24.9,57.9,52.9,1.5,3.2,3.3,7.4,4.8,10.5,3.4,3.7,7.5,8.3,11.6,11.4,16.7,12.6,37,20.9,57.9,22.4,12.9,1,40.3-8.9,38.1,13.2-.5,5.4-4.3,11.2-8.2,14.8-18.5,19.2-50.5,25.5-76.1,25.8-10.4.1-30.7-.9-39.8,1.5-18.5,7.2-26.8,19.1-20.4,39.1-10.5,1.6-30.2-.9-41.8,1.4l-1.4-1.6c-5.1-7.4-9.5-13-15.2-19.8-25.7-23.8-45.1-36.4-80.6-43.2-4.3-.9-8.3-1-12.6-2"/>
  <path class="st5" d="M257.4,131.6c-17.5-43.2,4.4-98.5,45.4-119.3,27.5-13.9,51-15.5,80.3-7.2-10.7,8.5-13,15.6-20.2,22.6-17.8,4.9-31.3,10.2-41.1,27.2-7.2,12.7-9,27.8-5.1,41.9,4.5,16.5,11.3,17.9,18.7,29.4,2.7,9.5,3.8,16.2,7.4,25.8,1.2,3.7,9.4,22.6,8.3,24.2-.1.2-.3.3-.5.5-25.7-23.8-45.1-36.4-80.6-43.2-4.3-.9-8.3-1-12.6-2"/>
  <path class="st3" d="M330.6,21.4c6-4.2,11.3-8,18.4-10.3,3.6-1.2,14.3-4.4,12.3,3.4-3.7,3.9-11.7,3.1-16.6,5.2-6.8,2.9-11.7,6.5-17.2,11.4-1.8,1.6-9.6,9.4-10.6,9.5,0-.6,0-1.1.2-1.7.4-9.1,4.2-15.9,13.6-17.5"/>
  <path class="st7" d="M317,38.9c.4-9.1,4.2-15.9,13.6-17.5-7.6,7.8-7.9,9.7-13.6,17.5"/>
  <path class="st3" d="M303.3,90.1c1.3,1.1,2.6,4.7,3.2,6.5,4.2,11.5,11,20.4,19.5,29.2-17.1-4.5-22-20.2-22.7-35.7"/>
  <path class="st3" d="M362.9,27.7c4.5,1,9.5.9,14.1,1.7,14.1,2.4,26.6,10.4,34.5,22.3,16.8,25.5,9.5,67.3-15.5,85-7.8,5.5-24.7,11.5-34.3,9.7,2.4-1.1,7.8-1.9,11.1-3,10.9-3.3,23.4-12.8,30.5-21.6-2.8,2-6,4.6-8.9,6.3-13.5,7.8-31.3,8.9-45.8,3.3-4-1.5-9.1-5.4-13.3-5.2-7.3-11.5-14.2-13-18.7-29.4-3.9-14.1-2.1-29.2,5.1-41.9,9.8-17,23.2-22.4,41.1-27.2"/>
  <path class="st8" d="M361.8,35c25.8-3.2,49.3,15.1,52.5,40.8,3.2,25.8-15.1,49.3-40.9,52.5-25.8,3.2-49.2-15.1-52.4-40.9-3.2-25.8,15.1-49.2,40.8-52.5"/>
  <path class="st6" d="M383,64.3c6.2-.4,7.5.4,12.5,3.7-1.5.3-4.8.7-5.9,1.6-5.3,4.4-.4,10.6,5.3,10.1,3.5-1.9,2.4-5.3,4.2-7.7,1,.8,2.6,4.7,2.9,6,1.2,6-.4,10.1-3.2,14.9-4.9,5.8-11.5,8.7-18.9,5.4-4.5-2-8.1-5.9-9.7-10.5-1.6-4.6-1.3-9.6.9-13.9,2.6-5.3,6.7-7.6,12-9.4"/>
  <path class="st5" d="M411.9,141.1c2.2-12.6,18.1-19.9,24.3-34.5,6.6-15.6,1.5-24.7,9.7-38.1,3.4,3.7,7.5,8.3,11.6,11.4,16.7,12.6,37,20.9,57.9,22.4,12.9,1,40.3-8.9,38.1,13.2-.5,5.4-4.3,11.2-8.2,14.8-18.5,19.2-50.5,25.5-76.1,25.8-10.4.1-30.7-.9-39.8,1.5-6-3.6-7-1.9-13-7.7-2.4-3-3.3-4.2-4.1-7.9l-.4-.9Z"/>
  <path class="st2" d="M412.2,142c9.1-2.6,19.6-5.3,29-5.2,21.1.3,41.4,5.6,62.7,2.3,8.2-1.3,15.6-4,23.5-6.3,4.7-1.4,13.5-4.8,17.8-2.5-18.5,19.2-50.5,25.5-76.1,25.8-10.4.1-30.7-.9-39.8,1.5-6-3.6-7-1.9-13-7.7-2.4-3-3.3-4.2-4.1-7.9"/>
  <path class="st10" d="M458.5,88.6c4.2.9,12.3,5.5,16.4,7.7,14.4,7.5,30.4,11.2,46.6,10.9,6.7-.2,22.9-2.9,26.3,3.4.1,2.2.1,1.4-1,3.6-14.9,5.7-40.6,1.3-54.8-4.8-8.2-3.5-28.7-12.8-33.4-20.7"/>
  <path class="st7" d="M461.7,98.6c4.1,1.1,15.3,4.7,12.4,10.3-5.3-.2-17.6-2.7-12.4-10.3"/>
  <path class="st11" d="M403.8,147c2.2-1.2,7-3.7,8-5.9l.4.9c.8,3.7,1.7,4.9,4.1,7.9,6,5.8,7.1,4.1,13,7.7-18.5,7.2-26.8,19.1-20.4,39.1-10.5,1.6-30.2-.9-41.8,1.4l-1.4-1.6c-5.1-7.4-9.5-13-15.2-19.8.2-.2.4-.3.5-.5,1.1-1.5-7.1-20.4-8.3-24.2,14.4-1.5,29.4.5,44.1-3.4,4.4-1.2,12.7-2.9,16.9-1.7"/>
  <path class="st3" d="M403.8,147c2.2-1.2,7-3.7,8-5.9l.4.9c.8,3.7,1.7,4.9,4.1,7.9-12.1,3-20.8,10.9-25.6,22.2,1.1-11.3,4.4-17.8,13.1-25.2"/>
</svg>